<svg xmlns="http://www.w3.org/2000/svg" xmlns:v="https://svgstorm.com"
viewBox = "0 0 1280 129"
width="1280"
height="129">
<g fill="None" fill-opacity="0.0" stroke="#1881FA" stroke-opacity="1.00" stroke-width="0.3"><path d="
M 0.00 44.00 
L 0.00 129.00
L 1280.00 129.00
L 1280.00 45.00
C 1180.82 76.34 1076.50 89.68 969.00 89.00 C 861.50 88.32 754.69 74.64 653.98 48.02 C 553.26 21.41 451.96 3.87 346.00 0.00
L 341.00 0.00
C 339.04 1.52 333.89 1.72 332.00 0.00
L 267.00 0.00
C 175.90 4.42 85.28 15.87 0.00 44.00 Z"/>
</g>
<g fill="None" fill-opacity="0.0" stroke="#1881FA" stroke-opacity="0.68" stroke-width="0.3"><path d="
M 341.00 0.00 
L 332.00 0.00
C 333.89 1.72 339.04 1.52 341.00 0.00 Z"/>
</g>
<g fill="#1881FA" fill-opacity="1.00" stroke="None">
<path d="
M 0.00 44.00 
L 0.00 129.00
L 1280.00 129.00
L 1280.00 45.00
C 1180.82 76.34 1076.50 89.68 969.00 89.00 C 861.50 88.32 754.69 74.64 653.98 48.02 C 553.26 21.41 451.96 3.87 346.00 0.00
L 341.00 0.00
C 339.04 1.52 333.89 1.72 332.00 0.00
L 267.00 0.00
C 175.90 4.42 85.28 15.87 0.00 44.00 Z"/>
</g>
<g fill="#1881FA" fill-opacity="0.68" stroke="None">
<path d="
M 341.00 0.00 
L 332.00 0.00
C 333.89 1.72 339.04 1.52 341.00 0.00 Z"/>
</g>
</svg>