<?xml version="1.0" encoding="UTF-8" standalone="no" ?>
<!DOCTYPE svg PUBLIC "-//W3C//DTD SVG 1.1//EN" "http://www.w3.org/Graphics/SVG/1.1/DTD/svg11.dtd">
<svg xmlns="http://www.w3.org/2000/svg" xmlns:xlink="http://www.w3.org/1999/xlink" version="1.1" width="1080" height="1080" viewBox="0 0 1080 1080" xml:space="preserve">
<desc>Created with Fabric.js 5.2.4</desc>
<defs>
</defs>
<g transform="matrix(1 0 0 1 540 540)" id="916b2751-17f4-4a3c-b209-df167e4b6336"  >
</g>
<g transform="matrix(1 0 0 1 540 540)" id="c24d7252-3d8e-4abe-a5da-4b935d9390fb"  >
<rect style="stroke: none; stroke-width: 1; stroke-dasharray: none; stroke-linecap: butt; stroke-dashoffset: 0; stroke-linejoin: miter; stroke-miterlimit: 4; fill: rgb(255,255,255); fill-rule: nonzero; opacity: 1; visibility: hidden;" vector-effect="non-scaling-stroke"  x="-540" y="-540" rx="0" ry="0" width="1080" height="1080" />
</g>
<g transform="matrix(1 0 0 1 540.29 509.11)"  >
<path style="stroke: none; stroke-width: 1; stroke-dasharray: none; stroke-linecap: butt; stroke-dashoffset: 0; stroke-linejoin: miter; stroke-miterlimit: 4; fill: rgb(231,109,11); fill-rule: nonzero; opacity: 1;" vector-effect="non-scaling-stroke"  transform=" translate(-512.29, -481.11)" d="M 515.97 843.75 C 514.15 846.64 512.3 849 511.85 849 C 511.01 849 510.55 848.32 504.57 838.26 C 491.26 815.84 460.91 783.28 435.02 763.65 C 427.59 758.01 419.92 752.47 418 751.35 C 416.08 750.23 409.71 746.37 403.86 742.77 C 392.32 735.67 387.97 733.23 366 721.51 C 358.02 717.26 348.58 712.18 345 710.23 C 337.49 706.14 304.74 686.8 304 686.02 C 303.73 685.74 301.25 683.96 298.5 682.07 C 295.75 680.18 289.45 675.6 284.5 671.89 C 254.77 649.59 225.76 618.04 196.83 576.51 C 192.61 570.46 188.22 564.3 187.08 562.84 C 185.19 560.42 184.36 558 185.42 558 C 185.65 558 190.72 559.77 196.67 561.94 C 214.95 568.59 228.7 572.06 248.5 575.03 C 256.34 576.2 294.59 575.87 305 574.54 C 312.56 573.57 319.96 571.74 319.47 570.95 C 319.22 570.54 313.05 570.14 305.76 570.06 C 279.84 569.77 256.29 565 227.31 554.16 C 207.39 546.71 192.82 536.68 179.64 521.36 C 161.92 500.76 148.81 467.11 142.96 427.23 C 141.25 415.57 141.09 373.82 142.75 373.26 C 143.44 373.02 144 373.56 144 374.45 C 144 375.33 145.4 378.86 147.11 382.28 C 157.93 403.92 171.42 421.13 200.61 450.54 C 226.81 476.95 241.22 487.63 269 501.25 C 278.08 505.7 285.95 509.56 286.5 509.83 C 288.99 511.06 285.41 508.21 281.05 505.5 C 260.59 492.77 233.57 468.68 213.22 445 C 196.57 425.65 189.36 414.95 178.15 393 C 161.56 360.51 158.03 331.31 166.47 296.5 C 170.63 279.35 180.49 252.4 188.72 235.67 C 195.38 222.13 205.47 204 206.35 204 C 206.43 204 206.34 211.31 206.14 220.25 C 205.66 241.66 207.76 261.79 212.6 282 C 214.24 288.89 217.59 300.16 218.97 303.5 C 219.43 304.6 220.83 308.2 222.07 311.5 C 228.08 327.39 241.83 351.41 252.43 364.53 C 265.51 380.72 284.56 401 286.68 401 C 288.48 401 288.34 399.53 286.4 397.92 C 275.03 388.48 247.74 335.74 243.51 315 C 243.12 313.08 242.4 309.7 241.91 307.5 C 240.15 299.5 238.02 280.31 238.03 272.5 C 238.05 253.16 243.64 230.08 253.04 210.5 C 266.08 183.33 287.56 158.93 316.94 137.93 C 327.73 130.21 357.64 112.7 359.13 113.23 C 359.55 113.38 358.01 115.77 355.7 118.55 C 345.38 130.97 330.48 155.96 323.06 173.29 C 315.08 191.94 310.67 206.54 306.84 227 C 304.31 240.51 303.17 282.03 304.89 297.86 C 308.83 334.06 319.69 370.17 337.27 405.5 C 346.11 423.27 350.97 431.42 364 450.36 C 373.65 464.39 399.51 491.04 401.99 489.51 C 402.67 489.09 402.63 488.18 401.89 486.8 C 399.07 481.53 395.82 467.74 393.47 451.08 C 387.44 408.33 401.57 357.41 429.43 321.54 C 431.94 318.3 433.83 315.49 433.62 315.29 C 433.42 315.08 431.28 315.72 428.87 316.71 C 425.62 318.04 421.82 318.5 414 318.49 C 403.55 318.48 403.46 318.46 395.28 314.15 C 382.8 307.56 376.04 300.83 369.98 288.96 C 366.61 282.35 367.18 281.66 373.65 284.52 C 384.1 289.14 390.54 290.34 405 290.34 C 415.58 290.33 420.31 289.87 426.86 288.17 C 437.68 285.38 451.21 279.97 462.5 273.93 C 479.33 264.93 496.31 258.44 512.5 254.83 C 525.27 251.98 548 251.27 558.23 253.4 C 573.23 256.52 584.82 261.75 590.13 267.8 L 593.19 271.28 L 601.34 270.72 C 617.03 269.65 635.45 274.16 646.75 281.83 C 654.24 286.92 658 291.22 661.91 299.17 C 664.93 305.31 667.86 317.47 666.62 318.71 C 666.28 319.05 663.87 318.17 661.26 316.77 C 644.15 307.59 623.92 311.27 592.85 329.22 C 587.54 332.29 575.62 338.27 566.35 342.52 C 540.3 354.47 528.16 363.49 520.1 376.85 C 515.11 385.12 513 393.06 513 403.5 C 513 413.52 514.92 421.16 520.04 431.54 C 526.53 444.7 538.13 456.13 562.28 473.16 C 591.76 493.95 609.6 512.32 623.81 536.5 C 647.53 576.89 645.06 628.85 617.33 672.29 C 607.77 687.28 599.79 696.94 568.43 731.5 C 545.84 756.39 535.3 770.48 528.06 785.5 C 520.89 800.36 517.08 814.67 523.84 801.35 C 531.24 786.77 540.48 776.64 587.98 731 C 616.36 703.73 626.65 691.27 636.74 672 C 645.52 655.21 650.03 641.96 654.1 621 C 655.94 611.52 656.32 606.16 656.29 590.5 C 656.26 572.98 656.05 570.8 653.62 562.5 C 652.17 557.55 648.26 547.96 644.93 541.19 L 638.87 528.88 L 646.32 517.69 C 663.03 492.61 671.46 468.25 674.93 435.04 C 676.01 424.74 676.13 424.39 683.12 411.78 C 694.13 391.91 704.66 366.5 711.08 344.31 C 713.05 337.5 716.7 320.13 719.13 306 C 720.8 296.34 720.81 255.24 719.15 245 C 718.48 240.88 717.46 234.57 716.89 231 C 712.65 204.51 701.97 175.15 687.11 149.11 C 680.47 137.49 667.91 118.68 665.99 117.49 C 665.45 117.16 664.53 116 663.95 114.91 C 662.99 113.11 663.14 112.99 665.7 113.58 C 672.79 115.22 696.69 129.36 714.65 142.54 C 723.8 149.25 744.32 169.06 750.36 177 C 762.41 192.85 773.48 213.17 778.68 229 C 785.85 250.85 787.7 271.3 784.51 293.72 C 781.61 314.09 777.93 325.8 767.58 347.5 C 756.64 370.42 741.52 393.61 730.96 403.68 C 724.89 409.45 724.72 411.68 730.67 407.32 C 744.83 396.96 754.44 387.37 770.58 367.5 C 786.84 347.49 804.01 312.47 810.55 286 C 816.59 261.56 818 250.27 818 226.34 C 818 215.15 818.36 206 818.79 206 C 819.82 206 824.06 213.45 832.17 229.5 C 842.63 250.2 850.22 269.41 853.9 284.5 C 855.11 289.45 856.5 295.08 857 297 C 861.33 313.72 861.85 342.65 858.08 357.5 C 853 377.49 847.71 390.73 838.14 407.34 C 828.46 424.13 823.38 431.15 807.37 449.84 C 795.55 463.64 771.06 487.11 762.06 493.25 C 760.65 494.22 756.8 497.02 753.5 499.49 C 750.2 501.95 745.5 505.32 743.05 506.98 C 740.61 508.64 739.26 509.99 740.05 509.98 C 740.85 509.97 742.62 509.08 744 508 C 745.38 506.92 747.08 506.03 747.79 506.02 C 750.3 505.98 766.26 497.13 780 488.15 C 787.23 483.43 797.06 475.93 804.5 469.46 C 811.57 463.32 836.31 438.29 844.47 429.03 C 857.73 413.98 872.04 392.84 877.66 380.01 C 879.46 375.89 881.43 372.36 882.03 372.16 C 884.07 371.48 882.58 418.4 880.08 433.5 C 872.37 480.24 856.2 514.02 831.35 535.36 C 822.46 542.99 816.03 546.89 803.15 552.48 C 776.32 564.13 748.55 570.64 721.5 571.64 C 713.8 571.93 706.83 572.42 706 572.74 C 703.28 573.8 731.15 575.82 749.81 575.91 C 768.48 576 774.58 575.43 792.86 571.88 C 805.41 569.45 817.11 566.12 829.73 561.39 C 834.93 559.44 839.4 558.07 839.68 558.34 C 840.63 559.3 819.24 589.98 806.09 606.5 C 784.13 634.09 755.18 662.57 734.42 677 C 712.81 692.02 696.45 701.84 667 717.49 C 632.49 735.82 624.61 740.4 605.09 753.5 C 589.25 764.13 588.42 764.73 578.87 772.47 C 569.4 780.14 541.65 807.85 536.28 815 C 534 818.03 530.42 822.75 528.32 825.51 C 524.41 830.63 521.8 834.49 515.97 843.75 Z M 488.72 682.75 C 488.48 687.84 488.67 692 489.14 692 C 489.61 692 490 690.68 490 689.06 C 490 687.44 490.38 685.88 490.85 685.59 C 492.55 684.54 494.24 670.11 493.79 660.37 C 492.34 628.38 469.13 598.09 415 557.52 C 409.23 553.2 403.15 548.59 401.5 547.3 C 399.85 546 393.55 541.05 387.5 536.3 C 375.53 526.89 356.22 508.58 352.38 503 C 351.05 501.08 347.49 496.16 344.46 492.07 C 335.1 479.43 327.64 462.31 318.93 433.43 C 318.42 431.74 318 428.7 318 426.68 C 318 424.66 317.54 423 316.97 423 C 315.76 423 316.45 449.2 317.96 461 C 321.62 489.45 333.28 512.59 353.88 532.26 C 364.38 542.3 373.77 549.15 396.78 563.57 C 437.12 588.85 459.06 607.24 472.82 627.31 C 484.73 644.68 489.72 662.08 488.72 682.75 Z M 662.66 528 C 661.68 529.65 661.07 531 661.3 531 C 662.53 531 684.29 508.52 688.39 503 C 697.55 490.68 703.61 475.53 706.5 457.67 C 708.1 447.86 708.59 419.95 707.14 421.55 C 706.66 422.07 705.71 426.1 705.01 430.5 C 701.56 452.41 687.83 486.53 671.53 513.73 C 668.49 518.8 666 523.41 666 523.98 C 666 524.54 665.65 525 665.22 525 C 664.78 525 663.63 526.35 662.66 528 Z M 406.32 338.46 C 404.22 340.92 401.8 342.95 400.94 342.97 C 399.22 343 389.44 337.35 385.07 333.78 C 383.53 332.53 381.42 330.99 380.38 330.37 C 377.12 328.41 379.72 327.67 385.73 328.85 C 388.9 329.48 395.1 330.68 399.5 331.52 C 406.07 332.78 408.78 333.21 409.08 334.3 C 409.28 335.03 408.39 336.06 406.86 337.83 C 406.69 338.03 406.51 338.24 406.32 338.46 Z" stroke-linecap="round" />
</g>
<g transform="matrix(1 0 0 1 539.5 539.5)"  >
<path style="stroke: none; stroke-width: 0; stroke-dasharray: none; stroke-linecap: butt; stroke-dashoffset: 0; stroke-linejoin: miter; stroke-miterlimit: 4; fill: rgb(254,254,254); fill-rule: nonzero; opacity: 0;" vector-effect="non-scaling-stroke"  transform=" translate(-512, -512)" d="M 0 512 L 0 0 L 512 0 L 1024 0 L 1024 512 L 1024 1024 L 512 1024 L 0 1024 L 0 512 Z M 515.97 843.75 C 521.8 834.49 524.41 830.63 528.32 825.51 C 530.42 822.75 534 818.03 536.28 815 C 541.65 807.85 569.4 780.14 578.87 772.47 C 588.42 764.73 589.25 764.13 605.09 753.5 C 624.61 740.4 632.49 735.82 667 717.49 C 696.45 701.84 712.81 692.02 734.42 677 C 755.18 662.57 784.13 634.09 806.09 606.5 C 819.24 589.98 840.63 559.3 839.68 558.34 C 839.4 558.07 834.93 559.44 829.73 561.39 C 817.11 566.12 805.41 569.45 792.86 571.88 C 774.58 575.43 768.48 576 749.81 575.91 C 731.15 575.82 703.28 573.8 706 572.74 C 706.83 572.42 713.8 571.93 721.5 571.64 C 748.55 570.64 776.32 564.13 803.15 552.48 C 816.03 546.89 822.46 542.99 831.35 535.36 C 856.2 514.02 872.37 480.24 880.08 433.5 C 882.58 418.4 884.07 371.48 882.03 372.16 C 881.43 372.36 879.46 375.89 877.66 380.01 C 872.04 392.84 857.73 413.98 844.47 429.03 C 836.31 438.29 811.57 463.32 804.5 469.46 C 797.06 475.93 787.23 483.43 780 488.15 C 766.26 497.13 750.3 505.98 747.79 506.02 C 747.08 506.03 745.38 506.92 744 508 C 742.62 509.08 740.85 509.97 740.05 509.98 C 739.26 509.99 740.61 508.64 743.05 506.98 C 745.5 505.32 750.2 501.95 753.5 499.49 C 756.8 497.02 760.65 494.22 762.06 493.25 C 771.06 487.11 795.55 463.64 807.37 449.84 C 823.38 431.15 828.46 424.13 838.14 407.34 C 847.71 390.73 853 377.49 858.08 357.5 C 861.85 342.65 861.33 313.72 857 297 C 856.5 295.08 855.11 289.45 853.9 284.5 C 850.22 269.41 842.63 250.2 832.17 229.5 C 824.06 213.45 819.82 206 818.79 206 C 818.36 206 818 215.15 818 226.34 C 818 250.27 816.59 261.56 810.55 286 C 804.01 312.47 786.84 347.49 770.58 367.5 C 754.44 387.37 744.83 396.96 730.67 407.32 C 724.72 411.68 724.89 409.45 730.96 403.68 C 741.52 393.61 756.64 370.42 767.58 347.5 C 777.93 325.8 781.61 314.09 784.51 293.72 C 787.7 271.3 785.85 250.85 778.68 229 C 773.48 213.17 762.41 192.85 750.36 177 C 744.32 169.06 723.8 149.25 714.65 142.54 C 696.69 129.36 672.79 115.22 665.7 113.58 C 663.14 112.99 662.99 113.11 663.95 114.91 C 664.53 116 665.45 117.16 665.99 117.49 C 667.91 118.68 680.47 137.49 687.11 149.11 C 701.97 175.15 712.65 204.51 716.89 231 C 717.46 234.57 718.48 240.88 719.15 245 C 720.81 255.24 720.8 296.34 719.13 306 C 716.7 320.13 713.05 337.5 711.08 344.31 C 704.66 366.5 694.13 391.91 683.12 411.78 C 676.13 424.39 676.01 424.74 674.93 435.04 C 671.46 468.25 663.03 492.61 646.32 517.69 L 638.87 528.88 L 644.93 541.19 C 648.26 547.96 652.17 557.55 653.62 562.5 C 656.05 570.8 656.26 572.98 656.29 590.5 C 656.32 606.16 655.94 611.52 654.1 621 C 650.03 641.96 645.52 655.21 636.74 672 C 626.65 691.27 616.36 703.73 587.98 731 C 540.48 776.64 531.24 786.77 523.84 801.35 C 517.08 814.67 520.89 800.36 528.06 785.5 C 535.3 770.48 545.84 756.39 568.43 731.5 C 599.79 696.94 607.77 687.28 617.33 672.29 C 645.06 628.85 647.53 576.89 623.81 536.5 C 609.6 512.32 591.76 493.95 562.28 473.16 C 538.13 456.13 526.53 444.7 520.04 431.54 C 514.92 421.16 513 413.52 513 403.5 C 513 393.06 515.11 385.12 520.1 376.85 C 528.16 363.49 540.3 354.47 566.35 342.52 C 575.62 338.27 587.54 332.29 592.85 329.22 C 623.92 311.27 644.15 307.59 661.26 316.77 C 663.87 318.17 666.28 319.05 666.62 318.71 C 667.86 317.47 664.93 305.31 661.91 299.17 C 658 291.22 654.24 286.92 646.75 281.83 C 635.45 274.16 617.03 269.65 601.34 270.72 L 593.19 271.28 L 590.13 267.8 C 584.82 261.75 573.23 256.52 558.23 253.4 C 548 251.27 525.27 251.98 512.5 254.83 C 496.31 258.44 479.33 264.93 462.5 273.93 C 451.21 279.97 437.68 285.38 426.86 288.17 C 420.31 289.87 415.58 290.33 405 290.34 C 390.54 290.34 384.1 289.14 373.65 284.52 C 367.18 281.66 366.61 282.35 369.98 288.96 C 376.04 300.83 382.8 307.56 395.28 314.15 C 403.46 318.46 403.55 318.48 414 318.49 C 421.82 318.5 425.62 318.04 428.87 316.71 C 431.28 315.72 433.42 315.08 433.62 315.29 C 433.83 315.49 431.94 318.3 429.43 321.54 C 401.57 357.41 387.44 408.33 393.47 451.08 C 395.82 467.74 399.07 481.53 401.89 486.8 C 402.63 488.18 402.67 489.09 401.99 489.51 C 399.51 491.04 373.65 464.39 364 450.36 C 350.97 431.42 346.11 423.27 337.27 405.5 C 319.69 370.17 308.83 334.06 304.89 297.86 C 303.17 282.03 304.31 240.51 306.84 227 C 310.67 206.54 315.08 191.94 323.06 173.29 C 330.48 155.96 345.38 130.97 355.7 118.55 C 358.01 115.77 359.55 113.38 359.13 113.23 C 357.64 112.7 327.73 130.21 316.94 137.93 C 287.56 158.93 266.08 183.33 253.04 210.5 C 243.64 230.08 238.05 253.16 238.03 272.5 C 238.02 280.31 240.15 299.5 241.91 307.5 C 242.4 309.7 243.12 313.08 243.51 315 C 247.74 335.74 275.03 388.48 286.4 397.92 C 288.34 399.53 288.48 401 286.68 401 C 284.56 401 265.51 380.72 252.43 364.53 C 241.83 351.41 228.08 327.39 222.07 311.5 C 220.83 308.2 219.43 304.6 218.97 303.5 C 217.59 300.16 214.24 288.89 212.6 282 C 207.76 261.79 205.66 241.66 206.14 220.25 C 206.34 211.31 206.43 204 206.35 204 C 205.47 204 195.38 222.13 188.72 235.67 C 180.49 252.4 170.63 279.35 166.47 296.5 C 158.03 331.31 161.56 360.51 178.15 393 C 189.36 414.95 196.57 425.65 213.22 445 C 233.57 468.68 260.59 492.77 281.05 505.5 C 285.41 508.21 288.99 511.06 286.5 509.83 C 285.95 509.56 278.08 505.7 269 501.25 C 241.22 487.63 226.81 476.95 200.61 450.54 C 171.42 421.13 157.93 403.92 147.11 382.28 C 145.4 378.86 144 375.33 144 374.45 C 144 373.56 143.44 373.02 142.75 373.26 C 141.09 373.82 141.25 415.57 142.96 427.23 C 148.81 467.11 161.92 500.76 179.64 521.36 C 192.82 536.68 207.39 546.71 227.31 554.16 C 256.29 565 279.84 569.77 305.76 570.06 C 313.05 570.14 319.22 570.54 319.47 570.95 C 319.96 571.74 312.56 573.57 305 574.54 C 294.59 575.87 256.34 576.2 248.5 575.03 C 228.7 572.06 214.95 568.59 196.67 561.94 C 190.72 559.77 185.65 558 185.42 558 C 184.36 558 185.19 560.42 187.08 562.84 C 188.22 564.3 192.61 570.46 196.83 576.51 C 225.76 618.04 254.77 649.59 284.5 671.89 C 289.45 675.6 295.75 680.18 298.5 682.07 C 301.25 683.96 303.73 685.74 304 686.02 C 304.74 686.8 337.49 706.14 345 710.23 C 348.58 712.18 358.02 717.26 366 721.51 C 387.97 733.23 392.32 735.67 403.86 742.77 C 409.71 746.37 416.08 750.23 418 751.35 C 419.92 752.47 427.59 758.01 435.02 763.65 C 460.91 783.28 491.26 815.84 504.57 838.26 C 510.55 848.32 511.01 849 511.85 849 C 512.3 849 514.15 846.64 515.97 843.75 Z M 406.32 338.46 C 410.66 333.39 410.98 333.72 399.5 331.52 C 395.1 330.68 388.9 329.48 385.73 328.85 C 379.72 327.67 377.12 328.41 380.38 330.37 C 381.42 330.99 383.53 332.53 385.07 333.78 C 389.44 337.35 399.22 343 400.94 342.97 C 401.8 342.95 404.22 340.92 406.32 338.46 Z M 488.72 682.75 C 489.72 662.08 484.73 644.68 472.82 627.31 C 459.06 607.24 437.12 588.85 396.78 563.57 C 373.77 549.15 364.38 542.3 353.88 532.26 C 333.28 512.59 321.62 489.45 317.96 461 C 316.45 449.2 315.76 423 316.97 423 C 317.54 423 318 424.66 318 426.68 C 318 428.7 318.42 431.74 318.93 433.43 C 327.64 462.31 335.1 479.43 344.46 492.07 C 347.49 496.16 351.05 501.08 352.38 503 C 356.22 508.58 375.53 526.89 387.5 536.3 C 393.55 541.05 399.85 546 401.5 547.3 C 403.15 548.59 409.23 553.2 415 557.52 C 469.13 598.09 492.34 628.38 493.79 660.37 C 494.24 670.11 492.55 684.54 490.85 685.59 C 490.38 685.88 490 687.44 490 689.06 C 490 690.68 489.61 692 489.14 692 C 488.67 692 488.48 687.84 488.72 682.75 Z M 662.66 528 C 663.63 526.35 664.78 525 665.22 525 C 665.65 525 666 524.54 666 523.98 C 666 523.41 668.49 518.8 671.53 513.73 C 687.83 486.53 701.56 452.41 705.01 430.5 C 705.71 426.1 706.66 422.07 707.14 421.55 C 708.59 419.95 708.1 447.86 706.5 457.67 C 703.61 475.53 697.55 490.68 688.39 503 C 684.29 508.52 662.53 531 661.3 531 C 661.07 531 661.68 529.65 662.66 528 Z" stroke-linecap="round" />
</g>
</svg>